inDegrees=no
num_controls=7
num_derivatives=13
num_iterations=124
num_multipliers=7
num_parameters=0
num_slacks=7
num_states=26
objective=0.550299
objective_accelerations=0.038349
objective_balance=0.003059
objective_effort=0.036137
objective_height=0.463336
objective_ligament=0.009418
solver_duration=1291.348709
status=Solve_Succeeded
success=true
DataType=double
version=3
OpenSimVersion=4.5
endheader
time	/jointset/ground_pelvis/pelvis_tilt/value	/jointset/ground_pelvis/pelvis_tx/value	/jointset/ground_pelvis/pelvis_ty/value	/jointset/hip_r/hip_flexion_r/value	/jointset/hip_r/hip_adduction_r/value	/jointset/hip_r/hip_rotation_r/value	/jointset/back/lumbar_extension/value	/jointset/patellofemoral_r/patellar_flexion_r/value	/jointset/knee_r/knee_flexion_r/value	/jointset/knee_r/knee_adduction_r/value	/jointset/knee_r/knee_rotation_r/value	/jointset/ankle_r/ankle_angle_r/value	/jointset/subtalar_r/subtalar_angle_r/value	/jointset/ground_pelvis/pelvis_tilt/speed	/jointset/ground_pelvis/pelvis_tx/speed	/jointset/ground_pelvis/pelvis_ty/speed	/jointset/hip_r/hip_flexion_r/speed	/jointset/hip_r/hip_adduction_r/speed	/jointset/hip_r/hip_rotation_r/speed	/jointset/back/lumbar_extension/speed	/jointset/patellofemoral_r/patellar_flexion_r/speed	/jointset/knee_r/knee_flexion_r/speed	/jointset/knee_r/knee_adduction_r/speed	/jointset/knee_r/knee_rotation_r/speed	/jointset/ankle_r/ankle_angle_r/speed	/jointset/subtalar_r/subtalar_angle_r/speed	/forceset/tau_hip_flexion_r	/forceset/tau_hip_adduction_r	/forceset/tau_hip_rotation_r	/forceset/tau_knee_flexion_r	/forceset/tau_ankle_angle_r	/forceset/tau_subtalar_angle_r	/forceset/tau_lumbar_extension	lambda_cid13_p0	lambda_cid14_p0	lambda_cid14_p1	lambda_cid14_p2	lambda_cid14_p3	lambda_cid14_p4	lambda_cid14_p5	/jointset/ground_pelvis/pelvis_tilt/accel	/jointset/ground_pelvis/pelvis_tx/accel	/jointset/ground_pelvis/pelvis_ty/accel	/jointset/hip_r/hip_flexion_r/accel	/jointset/hip_r/hip_adduction_r/accel	/jointset/hip_r/hip_rotation_r/accel	/jointset/back/lumbar_extension/accel	/jointset/patellofemoral_r/patellar_flexion_r/accel	/jointset/knee_r/knee_flexion_r/accel	/jointset/knee_r/knee_adduction_r/accel	/jointset/knee_r/knee_rotation_r/accel	/jointset/ankle_r/ankle_angle_r/accel	/jointset/subtalar_r/subtalar_angle_r/accel	gamma_cid13_p0	gamma_cid14_p0	gamma_cid14_p1	gamma_cid14_p2	gamma_cid14_p3	gamma_cid14_p4	gamma_cid14_p5
1	-0.2309309834113969	0.01500479384860502	0.7439227750840338	1.176882854794174	-0.2334475907174075	-0.07285246444619196	-0.4363298030299765	1.1431414825412	1.143141482541127	-0.03018152738025287	0.1745257050543618	0.3891596446229141	0.09101774313620357	-0.0009212389925011552	0.00338613085169397	0.01276360956662024	-0.03516564461664898	0.001902372460249296	-0.01023425527836638	0.0006530497031889218	-0.04627374066691156	-0.04627374066690983	0.0002312080398637606	-4.885101465063319e-05	-0.01146543511518411	-0.000849895370912172	-0.2283160113623817	0.02336758433517143	0.01330667559387596	-0.4333019063969424	-0.008007792075774241	0.002116562393783989	0.2620243665448212	-3.71468143937537	-50.17542836586876	-7.803987886392305	1.633155033116245	19.09994290210036	-772.0507532197088	55.09080179375819	1.105535869809051	0.02847463788810183	1.267334061142618	-4.153785939487272	0.1077737871340126	-0.6279728363699731	0.09194993429025645	-4.351530673144106	-4.351530673144201	0.4535690527075815	0.003671060501800691	-1.482841295036277	-0.3443417803472272	9.371097974009607e-10	-3.119492744827067e-09	2.294863913057013e-09	8.18418190990198e-09	8.091929111176068e-09	-4.624658214386403e-09	3.092094516456124e-10
1.01	-0.230885965757785	0.01504029438289908	0.7441136443406078	1.176324449231223	-0.2334232533085709	-0.07298564592507584	-0.4363162695275996	1.142461372250136	1.142461372250281	-0.03015597057149292	0.1745252427325725	0.3889711327631935	0.09099199878968496	0.009880076751347536	0.003737457617109587	0.02540952447349208	-0.07650608635061681	0.002963396793113401	-0.01639979812231645	0.002225615982720529	-0.08975805272891926	-0.08975805272891972	0.004887782953974939	-4.47294947625243e-05	-0.02621103100993792	-0.004291965746019917	-0.2292526710497771	0.02350413957170173	0.01330551912568175	-0.432809617181992	-0.008304364983784444	0.002127884586570831	0.2630282950515991	-3.744435109505794	-50.28784224309371	-7.813677440172203	1.628901704976349	18.87575244784272	-772.5894257603894	55.03195230809755	1.060726285484644	0.04198551530747634	1.263111270696661	-4.12276545393033	0.105012775320359	-0.6105077003578551	0.2157047565990458	-4.348342080601171	-4.348342080601458	0.4728469268911082	-0.001381614425391382	-1.466533706979773	-0.3430856312104464	1.644720572298428e-09	-2.50791263944026e-09	6.120464959746302e-09	1.462450180791742e-08	7.891875883427707e-09	-6.69685468459911e-09	4.275594495880561e-09
1.02	-0.2307342755749718	0.01508001294873515	0.7444309509592978	1.175352920818215	-0.2333883564526129	-0.07318041537079235	-0.4362818514060764	1.141346126716881	1.14134612671724	-0.03008361897036477	0.174524788763547	0.3886359419504685	0.09093204454639182	0.02041326684766862	0.004229737160098886	0.03805108198983848	-0.1177902146277365	0.00401426188428903	-0.02255184864428037	0.004829973534827009	-0.1333007891058105	-0.1333007891058135	0.00959016651321473	-4.718046118231003e-05	-0.0408012257160861	-0.007691874725844042	-0.2301893307371828	0.0236406948082259	0.01330436265748566	-0.432317327967043	-0.00860093789179588	0.002139206779347563	0.2640322235583681	-3.793538278540973	-50.41059934293433	-7.820581490769706	1.618953975635484	18.6760388132842	-773.2882929434548	54.99602644195473	1.051910740303544	0.05666519340282767	1.266462583037528	-4.142523248117646	0.1057419387963186	-0.625274371972749	0.2983081888052504	-4.363215536120806	-4.363215536120972	0.4627307817332968	0.00235656324022428	-1.451761057315166	-0.3359095012905066	2.268921171382295e-09	-1.702522458957104e-09	1.067983671275379e-08	2.118436538566738e-08	7.302066140810733e-09	-8.630922494322563e-09	8.526981470340609e-09
1.03	-0.2304787104470409	0.01512536457630329	0.744874583503818	1.173969041936993	-0.2333430189776579	-0.07343661667734863	-0.4362161014948274	1.13979524327028	1.139795243270412	-0.02996398097690474	0.1745242982324461	0.3881556106003118	0.09083827677008759	0.03064084477900008	0.004864768521313694	0.05066757838609229	-0.1589524165324075	0.005049916078185665	-0.02868351317907453	0.008508661407370844	-0.176877212302252	-0.1768772123022531	0.01434865569120812	-5.044380897129901e-05	-0.05524065899443152	-0.01105703430937987	-0.2308805481599341	0.02371179376494313	0.01331184878994174	-0.4316267328699506	-0.008696758128705583	0.002123526717163037	0.2648507180313402	-3.862358710496489	-50.44802835998695	-7.821995326701258	1.605530090303808	18.41933801949227	-773.6253959273904	54.94082411311945	0.9993453491675237	0.07055047067146815	1.258063764273689	-4.098096049134553	0.1019849166840451	-0.6063757896420888	0.4309469903290489	-4.355053106841803	-4.355053106841378	0.4840932924743798	-0.001589343469637904	-1.436377715776312	-0.3361164299778138	2.892270646223165e-09	-8.951546246464326e-10	1.52466959219482e-08	2.774544879688402e-08	6.70827929089918e-09	-1.056358082791857e-08	1.278127662776214e-08
1.04	-0.2301226367338719	0.01517779219012173	0.7454441451315713	1.172174535559228	-0.2332874234093632	-0.07375398728833736	-0.4361079051240815	1.137808556112629	1.13780855611253	-0.02979642103033492	0.1745237907559288	0.3875316162668354	0.09071099794932956	0.04051498389511286	0.005644934410162004	0.06323689863651308	-0.1999157139367868	0.006065880551991575	-0.03478570953024276	0.01331926543391595	-0.2204615313161332	-0.22046153131613	0.01917455713488192	-5.056954400709069e-05	-0.06953382238006081	-0.01439408361662376	-0.2315717655826695	0.02378289272165703	0.01331933492239859	-0.4309361377728572	-0.008792578365617957	0.00210784665497229	0.265669212504328	-3.951398656822446	-50.49575129465199	-7.820544059935922	1.586318054750269	18.18474937660933	-774.123609222893	54.90887220791665	0.9812229772598219	0.08569209892951594	1.257027353870918	-4.102742348059296	0.1018039947781758	-0.6193807352475674	0.5246914196055091	-4.364794699608737	-4.364794699608403	0.4762132348693696	0.002984085790863902	-1.422507078771957	-0.3302874460321222	3.674992835426045e-09	-2.131929021898696e-10	1.827524098757708e-08	3.476352180702346e-08	6.52287695823097e-09	-1.292392991263241e-08	1.5726165987759e-08
1.05	-0.2296691446734674	0.01523874745391328	0.7461391720340089	1.16997096210874	-0.233221772870905	-0.07413222080797885	-0.4359465981207797	1.135386003563735	1.135386003563705	-0.02958024256146205	0.1745232947967248	0.386765421550875	0.09055048679318824	0.05016697273449299	0.006570480886662845	0.07576116062478086	-0.240806588920756	0.007060901207359888	-0.04085382320935437	0.01906832508712322	-0.2640483598687971	-0.2640483598687993	0.02407451802512173	-5.009779249698077e-05	-0.0836805072045656	-0.01770274578905563	-0.2319005682352694	0.02377431143928721	0.01333702896411376	-0.4300938637471772	-0.008639367712194415	0.002060989936405621	0.2661543303282006	-4.061279672596853	-50.44088043746685	-7.812552219217266	1.563644933876638	17.90781699595851	-774.2060055144497	54.86466217010445	0.9547199855136932	0.09964157105312517	1.249024353856339	-4.083400884428523	0.09785998846509726	-0.5994480402011561	0.6189417172795657	-4.355535044502762	-4.355535044503736	0.4988970955610061	-0.001633385290409735	-1.407058358297221	-0.3303368732817359	4.462695421952735e-09	4.648498792712532e-10	2.125571373621954e-08	4.179587574212924e-08	6.350236641726614e-09	-1.529764433331867e-08	1.863013641658635e-08
